<svg id="visual" viewBox="0 0 900 600" width="900" height="600" xmlns="http://www.w3.org/2000/svg" xmlns:xlink="http://www.w3.org/1999/xlink" version="1.1"><rect x="0" y="0" width="900" height="600" fill="#ffffff"></rect><path d="M0 171L21.5 175.2C43 179.3 86 187.7 128.8 191.7C171.7 195.7 214.3 195.3 257.2 192.5C300 189.7 343 184.3 385.8 183.5C428.7 182.7 471.3 186.3 514.2 195.3C557 204.3 600 218.7 642.8 224.7C685.7 230.7 728.3 228.3 771.2 228.5C814 228.7 857 231.3 878.5 232.7L900 234L900 0L878.5 0C857 0 814 0 771.2 0C728.3 0 685.7 0 642.8 0C600 0 557 0 514.2 0C471.3 0 428.7 0 385.8 0C343 0 300 0 257.2 0C214.3 0 171.7 0 128.8 0C86 0 43 0 21.5 0L0 0Z" fill="#fdd796"></path><path d="M0 163L21.5 167.5C43 172 86 181 128.8 181.8C171.7 182.7 214.3 175.3 257.2 177C300 178.7 343 189.3 385.8 188.5C428.7 187.7 471.3 175.3 514.2 167.7C557 160 600 157 642.8 159.7C685.7 162.3 728.3 170.7 771.2 167.5C814 164.3 857 149.7 878.5 142.3L900 135L900 0L878.5 0C857 0 814 0 771.2 0C728.3 0 685.7 0 642.8 0C600 0 557 0 514.2 0C471.3 0 428.7 0 385.8 0C343 0 300 0 257.2 0C214.3 0 171.7 0 128.8 0C86 0 43 0 21.5 0L0 0Z" fill="#ffb68d"></path><path d="M0 154L21.5 150.2C43 146.3 86 138.7 128.8 134.8C171.7 131 214.3 131 257.2 135.2C300 139.3 343 147.7 385.8 154.2C428.7 160.7 471.3 165.3 514.2 164.7C557 164 600 158 642.8 151.3C685.7 144.7 728.3 137.3 771.2 141C814 144.7 857 159.3 878.5 166.7L900 174L900 0L878.5 0C857 0 814 0 771.2 0C728.3 0 685.7 0 642.8 0C600 0 557 0 514.2 0C471.3 0 428.7 0 385.8 0C343 0 300 0 257.2 0C214.3 0 171.7 0 128.8 0C86 0 43 0 21.5 0L0 0Z" fill="#ff9698"></path><path d="M0 121L21.5 114.7C43 108.3 86 95.7 128.8 88.5C171.7 81.3 214.3 79.7 257.2 80.8C300 82 343 86 385.8 91.2C428.7 96.3 471.3 102.7 514.2 103.7C557 104.7 600 100.3 642.8 103.3C685.7 106.3 728.3 116.7 771.2 115.2C814 113.7 857 100.3 878.5 93.7L900 87L900 0L878.5 0C857 0 814 0 771.2 0C728.3 0 685.7 0 642.8 0C600 0 557 0 514.2 0C471.3 0 428.7 0 385.8 0C343 0 300 0 257.2 0C214.3 0 171.7 0 128.8 0C86 0 43 0 21.5 0L0 0Z" fill="#f47eb1"></path><path d="M0 81L21.5 75.7C43 70.3 86 59.7 128.8 55.8C171.7 52 214.3 55 257.2 55.5C300 56 343 54 385.8 53.3C428.7 52.7 471.3 53.3 514.2 59.5C557 65.7 600 77.3 642.8 81.5C685.7 85.7 728.3 82.3 771.2 80.8C814 79.3 857 79.7 878.5 79.8L900 80L900 0L878.5 0C857 0 814 0 771.2 0C728.3 0 685.7 0 642.8 0C600 0 557 0 514.2 0C471.3 0 428.7 0 385.8 0C343 0 300 0 257.2 0C214.3 0 171.7 0 128.8 0C86 0 43 0 21.5 0L0 0Z" fill="#c875cf"></path><path d="M0 33L21.5 31.2C43 29.3 86 25.7 128.8 24.5C171.7 23.3 214.3 24.7 257.2 30.7C300 36.7 343 47.3 385.8 48.2C428.7 49 471.3 40 514.2 35.5C557 31 600 31 642.8 31.5C685.7 32 728.3 33 771.2 35.5C814 38 857 42 878.5 44L900 46L900 0L878.5 0C857 0 814 0 771.2 0C728.3 0 685.7 0 642.8 0C600 0 557 0 514.2 0C471.3 0 428.7 0 385.8 0C343 0 300 0 257.2 0C214.3 0 171.7 0 128.8 0C86 0 43 0 21.5 0L0 0Z" fill="#7179e7"></path></svg>