<svg id="visual" viewBox="0 0 1920 1080" width="1920" height="1080" xmlns="http://www.w3.org/2000/svg" xmlns:xlink="http://www.w3.org/1999/xlink" version="1.1"><rect x="0" y="0" width="1920" height="1080" fill="#ffffff"></rect><path d="M0 478L26.7 501.3C53.3 524.7 106.7 571.3 160 591C213.3 610.7 266.7 603.3 320 588.3C373.3 573.3 426.7 550.7 480 526.8C533.3 503 586.7 478 640 464.3C693.3 450.7 746.7 448.3 800 476C853.3 503.7 906.7 561.3 960 563.2C1013.3 565 1066.7 511 1120 499.5C1173.3 488 1226.7 519 1280 526.7C1333.3 534.3 1386.7 518.7 1440 520C1493.3 521.3 1546.7 539.7 1600 525.2C1653.3 510.7 1706.7 463.3 1760 434C1813.3 404.7 1866.7 393.3 1893.3 387.7L1920 382L1920 0L1893.3 0C1866.7 0 1813.3 0 1760 0C1706.7 0 1653.3 0 1600 0C1546.7 0 1493.3 0 1440 0C1386.7 0 1333.3 0 1280 0C1226.7 0 1173.3 0 1120 0C1066.7 0 1013.3 0 960 0C906.7 0 853.3 0 800 0C746.7 0 693.3 0 640 0C586.7 0 533.3 0 480 0C426.7 0 373.3 0 320 0C266.7 0 213.3 0 160 0C106.7 0 53.3 0 26.7 0L0 0Z" fill="#ffffff"></path><path d="M0 400L26.7 416C53.3 432 106.7 464 160 455C213.3 446 266.7 396 320 380.5C373.3 365 426.7 384 480 394.5C533.3 405 586.7 407 640 423.5C693.3 440 746.7 471 800 461.5C853.3 452 906.7 402 960 372.5C1013.3 343 1066.7 334 1120 328.8C1173.3 323.7 1226.7 322.3 1280 338.7C1333.3 355 1386.7 389 1440 400C1493.3 411 1546.7 399 1600 390.3C1653.3 381.7 1706.7 376.3 1760 373.8C1813.3 371.3 1866.7 371.7 1893.3 371.8L1920 372L1920 0L1893.3 0C1866.7 0 1813.3 0 1760 0C1706.7 0 1653.3 0 1600 0C1546.7 0 1493.3 0 1440 0C1386.7 0 1333.3 0 1280 0C1226.7 0 1173.3 0 1120 0C1066.7 0 1013.3 0 960 0C906.7 0 853.3 0 800 0C746.7 0 693.3 0 640 0C586.7 0 533.3 0 480 0C426.7 0 373.3 0 320 0C266.7 0 213.3 0 160 0C106.7 0 53.3 0 26.7 0L0 0Z" fill="#d9d3f7"></path><path d="M0 272L26.7 267.2C53.3 262.3 106.7 252.7 160 251C213.3 249.3 266.7 255.7 320 273C373.3 290.3 426.7 318.7 480 312.8C533.3 307 586.7 267 640 259.7C693.3 252.3 746.7 277.7 800 281.2C853.3 284.7 906.7 266.3 960 254.5C1013.3 242.7 1066.7 237.3 1120 248.8C1173.3 260.3 1226.7 288.7 1280 316C1333.3 343.3 1386.7 369.7 1440 357.3C1493.3 345 1546.7 294 1600 275.5C1653.3 257 1706.7 271 1760 297.8C1813.3 324.7 1866.7 364.3 1893.3 384.2L1920 404L1920 0L1893.3 0C1866.7 0 1813.3 0 1760 0C1706.7 0 1653.3 0 1600 0C1546.7 0 1493.3 0 1440 0C1386.7 0 1333.3 0 1280 0C1226.7 0 1173.3 0 1120 0C1066.7 0 1013.3 0 960 0C906.7 0 853.3 0 800 0C746.7 0 693.3 0 640 0C586.7 0 533.3 0 480 0C426.7 0 373.3 0 320 0C266.7 0 213.3 0 160 0C106.7 0 53.3 0 26.7 0L0 0Z" fill="#b2a8ee"></path><path d="M0 294L26.7 273.2C53.3 252.3 106.7 210.7 160 201.8C213.3 193 266.7 217 320 233C373.3 249 426.7 257 480 246.5C533.3 236 586.7 207 640 193.5C693.3 180 746.7 182 800 194.3C853.3 206.7 906.7 229.3 960 222.5C1013.3 215.7 1066.7 179.3 1120 182.3C1173.3 185.3 1226.7 227.7 1280 249.3C1333.3 271 1386.7 272 1440 265C1493.3 258 1546.7 243 1600 228.3C1653.3 213.7 1706.7 199.3 1760 198.7C1813.3 198 1866.7 211 1893.3 217.5L1920 224L1920 0L1893.3 0C1866.7 0 1813.3 0 1760 0C1706.7 0 1653.3 0 1600 0C1546.7 0 1493.3 0 1440 0C1386.7 0 1333.3 0 1280 0C1226.7 0 1173.3 0 1120 0C1066.7 0 1013.3 0 960 0C906.7 0 853.3 0 800 0C746.7 0 693.3 0 640 0C586.7 0 533.3 0 480 0C426.7 0 373.3 0 320 0C266.7 0 213.3 0 160 0C106.7 0 53.3 0 26.7 0L0 0Z" fill="#877fe4"></path><path d="M0 137L26.7 137.5C53.3 138 106.7 139 160 133.7C213.3 128.3 266.7 116.7 320 117.8C373.3 119 426.7 133 480 143.3C533.3 153.7 586.7 160.3 640 158C693.3 155.7 746.7 144.3 800 135.8C853.3 127.3 906.7 121.7 960 124.7C1013.3 127.7 1066.7 139.3 1120 137C1173.3 134.7 1226.7 118.3 1280 117.5C1333.3 116.7 1386.7 131.3 1440 129.7C1493.3 128 1546.7 110 1600 110.2C1653.3 110.3 1706.7 128.7 1760 129.3C1813.3 130 1866.7 113 1893.3 104.5L1920 96L1920 0L1893.3 0C1866.7 0 1813.3 0 1760 0C1706.7 0 1653.3 0 1600 0C1546.7 0 1493.3 0 1440 0C1386.7 0 1333.3 0 1280 0C1226.7 0 1173.3 0 1120 0C1066.7 0 1013.3 0 960 0C906.7 0 853.3 0 800 0C746.7 0 693.3 0 640 0C586.7 0 533.3 0 480 0C426.7 0 373.3 0 320 0C266.7 0 213.3 0 160 0C106.7 0 53.3 0 26.7 0L0 0Z" fill="#5059da"></path></svg>